<svg width="24" height="24" viewBox="0 0 24 24" fill="none" xmlns="http://www.w3.org/2000/svg">
<g opacity="0.39">
<path d="M21.0564 11.325C18.742 7.96343 15.2288 6 12.2 6C9.17116 6 5.65834 7.96359 3.34364 11.325C3.26907 11.4335 3.19995 11.5779 3.19995 11.7222C3.19995 11.8669 3.26907 12.0107 3.3438 12.1194C5.65813 15.4808 9.17132 17.4444 12.1997 17.4444C15.2282 17.4444 18.7414 15.4808 21.0561 12.1194C21.1307 12.0109 21.2 11.8669 21.2 11.7222C21.2 11.5779 21.1307 11.4335 21.0561 11.3251L21.0564 11.325ZM12.2 15.8551C9.91751 15.8551 8.06727 14.0047 8.06727 11.7224C8.06727 9.43992 9.91768 7.58951 12.2 7.58951C14.4825 7.58951 16.3329 9.43992 16.3329 11.7222C16.3329 14.0047 14.4825 15.8551 12.2 15.8551Z" fill="black"/>
<path d="M14.9819 11.7219C14.9819 13.2583 13.7365 14.5036 12.2002 14.5036C10.664 14.5036 9.4187 13.2583 9.4187 11.7219C9.4187 10.1858 10.664 8.94043 12.2002 8.94043C13.7365 8.94043 14.9819 10.1858 14.9819 11.7219Z" fill="black"/>
</g>
</svg>
